<svg width="333" height="39" viewBox="0 0 333 39" fill="none" xmlns="http://www.w3.org/2000/svg">
<path d="M7.82812 3.625H9.32812V11.3203C9.32812 12.1745 9.13802 12.8854 8.75781 13.4531C8.3776 14.0208 7.8724 14.4479 7.24219 14.7344C6.61719 15.0156 5.9375 15.1562 5.20312 15.1562C4.43229 15.1562 3.73438 15.0156 3.10938 14.7344C2.48958 14.4479 1.9974 14.0208 1.63281 13.4531C1.27344 12.8854 1.09375 12.1745 1.09375 11.3203V3.625H2.58594V11.3203C2.58594 11.9141 2.69531 12.4036 2.91406 12.7891C3.13281 13.1745 3.4375 13.4609 3.82812 13.6484C4.22396 13.8359 4.68229 13.9297 5.20312 13.9297C5.72917 13.9297 6.1875 13.8359 6.57812 13.6484C6.97396 13.4609 7.28125 13.1745 7.5 12.7891C7.71875 12.4036 7.82812 11.9141 7.82812 11.3203V3.625ZM16.3984 12.7578C16.3984 12.5495 16.3516 12.3568 16.2578 12.1797C16.1693 11.9974 15.9844 11.8333 15.7031 11.6875C15.4271 11.5365 15.0104 11.4062 14.4531 11.2969C13.9844 11.1979 13.5599 11.0807 13.1797 10.9453C12.8047 10.8099 12.4844 10.6458 12.2188 10.4531C11.9583 10.2604 11.7578 10.0339 11.6172 9.77344C11.4766 9.51302 11.4062 9.20833 11.4062 8.85938C11.4062 8.52604 11.4792 8.21094 11.625 7.91406C11.776 7.61719 11.987 7.35417 12.2578 7.125C12.5339 6.89583 12.8646 6.71615 13.25 6.58594C13.6354 6.45573 14.0651 6.39062 14.5391 6.39062C15.2161 6.39062 15.7943 6.51042 16.2734 6.75C16.7526 6.98958 17.1198 7.3099 17.375 7.71094C17.6302 8.10677 17.7578 8.54688 17.7578 9.03125H16.3125C16.3125 8.79688 16.2422 8.57031 16.1016 8.35156C15.9661 8.1276 15.7656 7.94271 15.5 7.79688C15.2396 7.65104 14.9193 7.57812 14.5391 7.57812C14.138 7.57812 13.8125 7.64062 13.5625 7.76562C13.3177 7.88542 13.138 8.03906 13.0234 8.22656C12.9141 8.41406 12.8594 8.61198 12.8594 8.82031C12.8594 8.97656 12.8854 9.11719 12.9375 9.24219C12.9948 9.36198 13.0938 9.47396 13.2344 9.57812C13.375 9.67708 13.5729 9.77083 13.8281 9.85938C14.0833 9.94792 14.4089 10.0365 14.8047 10.125C15.4974 10.2812 16.0677 10.4688 16.5156 10.6875C16.9635 10.9062 17.2969 11.1745 17.5156 11.4922C17.7344 11.8099 17.8438 12.1953 17.8438 12.6484C17.8438 13.0182 17.7656 13.3568 17.6094 13.6641C17.4583 13.9714 17.237 14.237 16.9453 14.4609C16.6589 14.6797 16.3151 14.8516 15.9141 14.9766C15.5182 15.0964 15.0729 15.1562 14.5781 15.1562C13.8333 15.1562 13.2031 15.0234 12.6875 14.7578C12.1719 14.4922 11.7812 14.1484 11.5156 13.7266C11.25 13.3047 11.1172 12.8594 11.1172 12.3906H12.5703C12.5911 12.7865 12.7057 13.1016 12.9141 13.3359C13.1224 13.5651 13.3776 13.7292 13.6797 13.8281C13.9818 13.9219 14.2812 13.9688 14.5781 13.9688C14.974 13.9688 15.3047 13.9167 15.5703 13.8125C15.8411 13.7083 16.0469 13.5651 16.1875 13.3828C16.3281 13.2005 16.3984 12.9922 16.3984 12.7578ZM23.25 15.1562C22.6615 15.1562 22.1276 15.0573 21.6484 14.8594C21.1745 14.6562 20.7656 14.3724 20.4219 14.0078C20.0833 13.6432 19.8229 13.2109 19.6406 12.7109C19.4583 12.2109 19.3672 11.6641 19.3672 11.0703V10.7422C19.3672 10.0547 19.4688 9.44271 19.6719 8.90625C19.875 8.36458 20.151 7.90625 20.5 7.53125C20.849 7.15625 21.2448 6.8724 21.6875 6.67969C22.1302 6.48698 22.5885 6.39062 23.0625 6.39062C23.6667 6.39062 24.1875 6.49479 24.625 6.70312C25.0677 6.91146 25.4297 7.20312 25.7109 7.57812C25.9922 7.94792 26.2005 8.38542 26.3359 8.89062C26.4714 9.39062 26.5391 9.9375 26.5391 10.5312V11.1797H20.2266V10H25.0938V9.89062C25.0729 9.51562 24.9948 9.15104 24.8594 8.79688C24.7292 8.44271 24.5208 8.15104 24.2344 7.92188C23.9479 7.69271 23.5573 7.57812 23.0625 7.57812C22.7344 7.57812 22.4323 7.64844 22.1562 7.78906C21.8802 7.92448 21.6432 8.1276 21.4453 8.39844C21.2474 8.66927 21.0938 9 20.9844 9.39062C20.875 9.78125 20.8203 10.2318 20.8203 10.7422V11.0703C20.8203 11.4714 20.875 11.849 20.9844 12.2031C21.099 12.5521 21.263 12.8594 21.4766 13.125C21.6953 13.3906 21.9583 13.599 22.2656 13.75C22.5781 13.901 22.9323 13.9766 23.3281 13.9766C23.8385 13.9766 24.2708 13.8724 24.625 13.6641C24.9792 13.4557 25.2891 13.1771 25.5547 12.8281L26.4297 13.5234C26.2474 13.7995 26.0156 14.0625 25.7344 14.3125C25.4531 14.5625 25.1068 14.7656 24.6953 14.9219C24.2891 15.0781 23.8073 15.1562 23.25 15.1562ZM33.6406 8.35156V15H32.1953V6.54688H33.5625L33.6406 8.35156ZM33.2969 10.4531L32.6953 10.4297C32.7005 9.85156 32.7865 9.31771 32.9531 8.82812C33.1198 8.33333 33.3542 7.90365 33.6562 7.53906C33.9583 7.17448 34.3177 6.89323 34.7344 6.69531C35.1562 6.49219 35.6224 6.39062 36.1328 6.39062C36.5495 6.39062 36.9245 6.44792 37.2578 6.5625C37.5911 6.67188 37.875 6.84896 38.1094 7.09375C38.349 7.33854 38.5312 7.65625 38.6562 8.04688C38.7812 8.43229 38.8438 8.90365 38.8438 9.46094V15H37.3906V9.44531C37.3906 9.0026 37.3255 8.64844 37.1953 8.38281C37.0651 8.11198 36.875 7.91667 36.625 7.79688C36.375 7.67188 36.0677 7.60938 35.7031 7.60938C35.3438 7.60938 35.0156 7.6849 34.7188 7.83594C34.4271 7.98698 34.1745 8.19531 33.9609 8.46094C33.7526 8.72656 33.5885 9.03125 33.4688 9.375C33.3542 9.71354 33.2969 10.0729 33.2969 10.4531ZM40.6562 10.8672V10.6875C40.6562 10.0781 40.7448 9.51302 40.9219 8.99219C41.099 8.46615 41.3542 8.01042 41.6875 7.625C42.0208 7.23438 42.4245 6.93229 42.8984 6.71875C43.3724 6.5 43.9036 6.39062 44.4922 6.39062C45.0859 6.39062 45.6198 6.5 46.0938 6.71875C46.5729 6.93229 46.9792 7.23438 47.3125 7.625C47.651 8.01042 47.9089 8.46615 48.0859 8.99219C48.263 9.51302 48.3516 10.0781 48.3516 10.6875V10.8672C48.3516 11.4766 48.263 12.0417 48.0859 12.5625C47.9089 13.0833 47.651 13.5391 47.3125 13.9297C46.9792 14.3151 46.5755 14.6172 46.1016 14.8359C45.6328 15.0495 45.1016 15.1562 44.5078 15.1562C43.9141 15.1562 43.3802 15.0495 42.9062 14.8359C42.4323 14.6172 42.026 14.3151 41.6875 13.9297C41.3542 13.5391 41.099 13.0833 40.9219 12.5625C40.7448 12.0417 40.6562 11.4766 40.6562 10.8672ZM42.1016 10.6875V10.8672C42.1016 11.2891 42.151 11.6875 42.25 12.0625C42.349 12.4323 42.4974 12.7604 42.6953 13.0469C42.8984 13.3333 43.151 13.5599 43.4531 13.7266C43.7552 13.888 44.1068 13.9688 44.5078 13.9688C44.9036 13.9688 45.25 13.888 45.5469 13.7266C45.849 13.5599 46.099 13.3333 46.2969 13.0469C46.4948 12.7604 46.6432 12.4323 46.7422 12.0625C46.8464 11.6875 46.8984 11.2891 46.8984 10.8672V10.6875C46.8984 10.2708 46.8464 9.8776 46.7422 9.50781C46.6432 9.13281 46.4922 8.80208 46.2891 8.51562C46.0911 8.22396 45.8411 7.99479 45.5391 7.82812C45.2422 7.66146 44.8932 7.57812 44.4922 7.57812C44.0964 7.57812 43.7474 7.66146 43.4453 7.82812C43.1484 7.99479 42.8984 8.22396 42.6953 8.51562C42.4974 8.80208 42.349 9.13281 42.25 9.50781C42.151 9.8776 42.1016 10.2708 42.1016 10.6875ZM55.0859 12.7578C55.0859 12.5495 55.0391 12.3568 54.9453 12.1797C54.8568 11.9974 54.6719 11.8333 54.3906 11.6875C54.1146 11.5365 53.6979 11.4062 53.1406 11.2969C52.6719 11.1979 52.2474 11.0807 51.8672 10.9453C51.4922 10.8099 51.1719 10.6458 50.9062 10.4531C50.6458 10.2604 50.4453 10.0339 50.3047 9.77344C50.1641 9.51302 50.0938 9.20833 50.0938 8.85938C50.0938 8.52604 50.1667 8.21094 50.3125 7.91406C50.4635 7.61719 50.6745 7.35417 50.9453 7.125C51.2214 6.89583 51.5521 6.71615 51.9375 6.58594C52.3229 6.45573 52.7526 6.39062 53.2266 6.39062C53.9036 6.39062 54.4818 6.51042 54.9609 6.75C55.4401 6.98958 55.8073 7.3099 56.0625 7.71094C56.3177 8.10677 56.4453 8.54688 56.4453 9.03125H55C55 8.79688 54.9297 8.57031 54.7891 8.35156C54.6536 8.1276 54.4531 7.94271 54.1875 7.79688C53.9271 7.65104 53.6068 7.57812 53.2266 7.57812C52.8255 7.57812 52.5 7.64062 52.25 7.76562C52.0052 7.88542 51.8255 8.03906 51.7109 8.22656C51.6016 8.41406 51.5469 8.61198 51.5469 8.82031C51.5469 8.97656 51.5729 9.11719 51.625 9.24219C51.6823 9.36198 51.7812 9.47396 51.9219 9.57812C52.0625 9.67708 52.2604 9.77083 52.5156 9.85938C52.7708 9.94792 53.0964 10.0365 53.4922 10.125C54.1849 10.2812 54.7552 10.4688 55.2031 10.6875C55.651 10.9062 55.9844 11.1745 56.2031 11.4922C56.4219 11.8099 56.5312 12.1953 56.5312 12.6484C56.5312 13.0182 56.4531 13.3568 56.2969 13.6641C56.1458 13.9714 55.9245 14.237 55.6328 14.4609C55.3464 14.6797 55.0026 14.8516 54.6016 14.9766C54.2057 15.0964 53.7604 15.1562 53.2656 15.1562C52.5208 15.1562 51.8906 15.0234 51.375 14.7578C50.8594 14.4922 50.4688 14.1484 50.2031 13.7266C49.9375 13.3047 49.8047 12.8594 49.8047 12.3906H51.2578C51.2786 12.7865 51.3932 13.1016 51.6016 13.3359C51.8099 13.5651 52.0651 13.7292 52.3672 13.8281C52.6693 13.9219 52.9688 13.9688 53.2656 13.9688C53.6615 13.9688 53.9922 13.9167 54.2578 13.8125C54.5286 13.7083 54.7344 13.5651 54.875 13.3828C55.0156 13.2005 55.0859 12.9922 55.0859 12.7578ZM63.3516 12.7578C63.3516 12.5495 63.3047 12.3568 63.2109 12.1797C63.1224 11.9974 62.9375 11.8333 62.6562 11.6875C62.3802 11.5365 61.9635 11.4062 61.4062 11.2969C60.9375 11.1979 60.513 11.0807 60.1328 10.9453C59.7578 10.8099 59.4375 10.6458 59.1719 10.4531C58.9115 10.2604 58.7109 10.0339 58.5703 9.77344C58.4297 9.51302 58.3594 9.20833 58.3594 8.85938C58.3594 8.52604 58.4323 8.21094 58.5781 7.91406C58.7292 7.61719 58.9401 7.35417 59.2109 7.125C59.487 6.89583 59.8177 6.71615 60.2031 6.58594C60.5885 6.45573 61.0182 6.39062 61.4922 6.39062C62.1693 6.39062 62.7474 6.51042 63.2266 6.75C63.7057 6.98958 64.0729 7.3099 64.3281 7.71094C64.5833 8.10677 64.7109 8.54688 64.7109 9.03125H63.2656C63.2656 8.79688 63.1953 8.57031 63.0547 8.35156C62.9193 8.1276 62.7188 7.94271 62.4531 7.79688C62.1927 7.65104 61.8724 7.57812 61.4922 7.57812C61.0911 7.57812 60.7656 7.64062 60.5156 7.76562C60.2708 7.88542 60.0911 8.03906 59.9766 8.22656C59.8672 8.41406 59.8125 8.61198 59.8125 8.82031C59.8125 8.97656 59.8385 9.11719 59.8906 9.24219C59.9479 9.36198 60.0469 9.47396 60.1875 9.57812C60.3281 9.67708 60.526 9.77083 60.7812 9.85938C61.0365 9.94792 61.362 10.0365 61.7578 10.125C62.4505 10.2812 63.0208 10.4688 63.4688 10.6875C63.9167 10.9062 64.25 11.1745 64.4688 11.4922C64.6875 11.8099 64.7969 12.1953 64.7969 12.6484C64.7969 13.0182 64.7188 13.3568 64.5625 13.6641C64.4115 13.9714 64.1901 14.237 63.8984 14.4609C63.612 14.6797 63.2682 14.8516 62.8672 14.9766C62.4714 15.0964 62.026 15.1562 61.5312 15.1562C60.7865 15.1562 60.1562 15.0234 59.6406 14.7578C59.125 14.4922 58.7344 14.1484 58.4688 13.7266C58.2031 13.3047 58.0703 12.8594 58.0703 12.3906H59.5234C59.5443 12.7865 59.6589 13.1016 59.8672 13.3359C60.0755 13.5651 60.3307 13.7292 60.6328 13.8281C60.9349 13.9219 61.2344 13.9688 61.5312 13.9688C61.9271 13.9688 62.2578 13.9167 62.5234 13.8125C62.7943 13.7083 63 13.5651 63.1406 13.3828C63.2812 13.2005 63.3516 12.9922 63.3516 12.7578ZM66.3125 10.8672V10.6875C66.3125 10.0781 66.401 9.51302 66.5781 8.99219C66.7552 8.46615 67.0104 8.01042 67.3438 7.625C67.6771 7.23438 68.0807 6.93229 68.5547 6.71875C69.0286 6.5 69.5599 6.39062 70.1484 6.39062C70.7422 6.39062 71.276 6.5 71.75 6.71875C72.2292 6.93229 72.6354 7.23438 72.9688 7.625C73.3073 8.01042 73.5651 8.46615 73.7422 8.99219C73.9193 9.51302 74.0078 10.0781 74.0078 10.6875V10.8672C74.0078 11.4766 73.9193 12.0417 73.7422 12.5625C73.5651 13.0833 73.3073 13.5391 72.9688 13.9297C72.6354 14.3151 72.2318 14.6172 71.7578 14.8359C71.2891 15.0495 70.7578 15.1562 70.1641 15.1562C69.5703 15.1562 69.0365 15.0495 68.5625 14.8359C68.0885 14.6172 67.6823 14.3151 67.3438 13.9297C67.0104 13.5391 66.7552 13.0833 66.5781 12.5625C66.401 12.0417 66.3125 11.4766 66.3125 10.8672ZM67.7578 10.6875V10.8672C67.7578 11.2891 67.8073 11.6875 67.9062 12.0625C68.0052 12.4323 68.1536 12.7604 68.3516 13.0469C68.5547 13.3333 68.8073 13.5599 69.1094 13.7266C69.4115 13.888 69.763 13.9688 70.1641 13.9688C70.5599 13.9688 70.9062 13.888 71.2031 13.7266C71.5052 13.5599 71.7552 13.3333 71.9531 13.0469C72.151 12.7604 72.2995 12.4323 72.3984 12.0625C72.5026 11.6875 72.5547 11.2891 72.5547 10.8672V10.6875C72.5547 10.2708 72.5026 9.8776 72.3984 9.50781C72.2995 9.13281 72.1484 8.80208 71.9453 8.51562C71.7474 8.22396 71.4974 7.99479 71.1953 7.82812C70.8984 7.66146 70.5495 7.57812 70.1484 7.57812C69.7526 7.57812 69.4036 7.66146 69.1016 7.82812C68.8047 7.99479 68.5547 8.22396 68.3516 8.51562C68.1536 8.80208 68.0052 9.13281 67.9062 9.50781C67.8073 9.8776 67.7578 10.2708 67.7578 10.6875ZM84.7734 13.5547V9.20312C84.7734 8.86979 84.7057 8.58073 84.5703 8.33594C84.4401 8.08594 84.2422 7.89323 83.9766 7.75781C83.7109 7.6224 83.3828 7.55469 82.9922 7.55469C82.6276 7.55469 82.3073 7.61719 82.0312 7.74219C81.7604 7.86719 81.5469 8.03125 81.3906 8.23438C81.2396 8.4375 81.1641 8.65625 81.1641 8.89062H79.7188C79.7188 8.58854 79.7969 8.28906 79.9531 7.99219C80.1094 7.69531 80.3333 7.42708 80.625 7.1875C80.9219 6.94271 81.276 6.75 81.6875 6.60938C82.1042 6.46354 82.5677 6.39062 83.0781 6.39062C83.6927 6.39062 84.2344 6.49479 84.7031 6.70312C85.1771 6.91146 85.5469 7.22656 85.8125 7.64844C86.0833 8.0651 86.2188 8.58854 86.2188 9.21875V13.1562C86.2188 13.4375 86.2422 13.737 86.2891 14.0547C86.3411 14.3724 86.4167 14.6458 86.5156 14.875V15H85.0078C84.9349 14.8333 84.8776 14.612 84.8359 14.3359C84.7943 14.0547 84.7734 13.7943 84.7734 13.5547ZM85.0234 9.875L85.0391 10.8906H83.5781C83.1667 10.8906 82.7995 10.9245 82.4766 10.9922C82.1536 11.0547 81.8828 11.151 81.6641 11.2812C81.4453 11.4115 81.2786 11.5755 81.1641 11.7734C81.0495 11.9661 80.9922 12.1927 80.9922 12.4531C80.9922 12.7188 81.0521 12.9609 81.1719 13.1797C81.2917 13.3984 81.4714 13.5729 81.7109 13.7031C81.9557 13.8281 82.2552 13.8906 82.6094 13.8906C83.0521 13.8906 83.4427 13.7969 83.7812 13.6094C84.1198 13.4219 84.388 13.1927 84.5859 12.9219C84.7891 12.651 84.8984 12.388 84.9141 12.1328L85.5312 12.8281C85.4948 13.0469 85.3958 13.2891 85.2344 13.5547C85.0729 13.8203 84.8568 14.0755 84.5859 14.3203C84.3203 14.5599 84.0026 14.7604 83.6328 14.9219C83.2682 15.0781 82.8568 15.1562 82.3984 15.1562C81.8255 15.1562 81.3229 15.0443 80.8906 14.8203C80.4635 14.5964 80.1302 14.2969 79.8906 13.9219C79.6562 13.5417 79.5391 13.1172 79.5391 12.6484C79.5391 12.1953 79.6276 11.7969 79.8047 11.4531C79.9818 11.1042 80.237 10.8151 80.5703 10.5859C80.9036 10.3516 81.3047 10.1745 81.7734 10.0547C82.2422 9.9349 82.7656 9.875 83.3438 9.875H85.0234ZM89.9375 8.17188V18.25H88.4844V6.54688H89.8125L89.9375 8.17188ZM95.6328 10.7031V10.8672C95.6328 11.4818 95.5599 12.0521 95.4141 12.5781C95.2682 13.099 95.0547 13.5521 94.7734 13.9375C94.4974 14.3229 94.1562 14.6224 93.75 14.8359C93.3438 15.0495 92.8776 15.1562 92.3516 15.1562C91.8151 15.1562 91.3411 15.0677 90.9297 14.8906C90.5182 14.7135 90.1693 14.4557 89.8828 14.1172C89.5964 13.7786 89.3672 13.3724 89.1953 12.8984C89.0286 12.4245 88.9141 11.8906 88.8516 11.2969V10.4219C88.9141 9.79688 89.0312 9.23698 89.2031 8.74219C89.375 8.2474 89.6016 7.82552 89.8828 7.47656C90.1693 7.1224 90.5156 6.85417 90.9219 6.67188C91.3281 6.48438 91.7969 6.39062 92.3281 6.39062C92.8594 6.39062 93.3307 6.49479 93.7422 6.70312C94.1536 6.90625 94.5 7.19792 94.7812 7.57812C95.0625 7.95833 95.2734 8.41406 95.4141 8.94531C95.5599 9.47135 95.6328 10.0573 95.6328 10.7031ZM94.1797 10.8672V10.7031C94.1797 10.2812 94.1354 9.88542 94.0469 9.51562C93.9583 9.14062 93.8203 8.8125 93.6328 8.53125C93.4505 8.24479 93.2161 8.02083 92.9297 7.85938C92.6432 7.69271 92.3021 7.60938 91.9062 7.60938C91.5417 7.60938 91.224 7.67188 90.9531 7.79688C90.6875 7.92188 90.4609 8.09115 90.2734 8.30469C90.0859 8.51302 89.9323 8.7526 89.8125 9.02344C89.6979 9.28906 89.612 9.5651 89.5547 9.85156V11.875C89.6589 12.2396 89.8047 12.5833 89.9922 12.9062C90.1797 13.224 90.4297 13.4818 90.7422 13.6797C91.0547 13.8724 91.4479 13.9688 91.9219 13.9688C92.3125 13.9688 92.6484 13.888 92.9297 13.7266C93.2161 13.5599 93.4505 13.3333 93.6328 13.0469C93.8203 12.7604 93.9583 12.4323 94.0469 12.0625C94.1354 11.6875 94.1797 11.2891 94.1797 10.8672ZM98.9219 8.17188V18.25H97.4688V6.54688H98.7969L98.9219 8.17188ZM104.617 10.7031V10.8672C104.617 11.4818 104.544 12.0521 104.398 12.5781C104.253 13.099 104.039 13.5521 103.758 13.9375C103.482 14.3229 103.141 14.6224 102.734 14.8359C102.328 15.0495 101.862 15.1562 101.336 15.1562C100.799 15.1562 100.326 15.0677 99.9141 14.8906C99.5026 14.7135 99.1536 14.4557 98.8672 14.1172C98.5807 13.7786 98.3516 13.3724 98.1797 12.8984C98.013 12.4245 97.8984 11.8906 97.8359 11.2969V10.4219C97.8984 9.79688 98.0156 9.23698 98.1875 8.74219C98.3594 8.2474 98.5859 7.82552 98.8672 7.47656C99.1536 7.1224 99.5 6.85417 99.9062 6.67188C100.312 6.48438 100.781 6.39062 101.312 6.39062C101.844 6.39062 102.315 6.49479 102.727 6.70312C103.138 6.90625 103.484 7.19792 103.766 7.57812C104.047 7.95833 104.258 8.41406 104.398 8.94531C104.544 9.47135 104.617 10.0573 104.617 10.7031ZM103.164 10.8672V10.7031C103.164 10.2812 103.12 9.88542 103.031 9.51562C102.943 9.14062 102.805 8.8125 102.617 8.53125C102.435 8.24479 102.201 8.02083 101.914 7.85938C101.628 7.69271 101.286 7.60938 100.891 7.60938C100.526 7.60938 100.208 7.67188 99.9375 7.79688C99.6719 7.92188 99.4453 8.09115 99.2578 8.30469C99.0703 8.51302 98.9167 8.7526 98.7969 9.02344C98.6823 9.28906 98.5964 9.5651 98.5391 9.85156V11.875C98.6432 12.2396 98.7891 12.5833 98.9766 12.9062C99.1641 13.224 99.4141 13.4818 99.7266 13.6797C100.039 13.8724 100.432 13.9688 100.906 13.9688C101.297 13.9688 101.633 13.888 101.914 13.7266C102.201 13.5599 102.435 13.3333 102.617 13.0469C102.805 12.7604 102.943 12.4323 103.031 12.0625C103.12 11.6875 103.164 11.2891 103.164 10.8672ZM4.60938 34.1562C4.02083 34.1562 3.48698 34.0573 3.00781 33.8594C2.53385 33.6562 2.125 33.3724 1.78125 33.0078C1.44271 32.6432 1.18229 32.2109 1 31.7109C0.817708 31.2109 0.726562 30.6641 0.726562 30.0703V29.7422C0.726562 29.0547 0.828125 28.4427 1.03125 27.9062C1.23438 27.3646 1.51042 26.9062 1.85938 26.5312C2.20833 26.1562 2.60417 25.8724 3.04688 25.6797C3.48958 25.487 3.94792 25.3906 4.42188 25.3906C5.02604 25.3906 5.54688 25.4948 5.98438 25.7031C6.42708 25.9115 6.78906 26.2031 7.07031 26.5781C7.35156 26.9479 7.5599 27.3854 7.69531 27.8906C7.83073 28.3906 7.89844 28.9375 7.89844 29.5312V30.1797H1.58594V29H6.45312V28.8906C6.43229 28.5156 6.35417 28.151 6.21875 27.7969C6.08854 27.4427 5.88021 27.151 5.59375 26.9219C5.30729 26.6927 4.91667 26.5781 4.42188 26.5781C4.09375 26.5781 3.79167 26.6484 3.51562 26.7891C3.23958 26.9245 3.0026 27.1276 2.80469 27.3984C2.60677 27.6693 2.45312 28 2.34375 28.3906C2.23438 28.7812 2.17969 29.2318 2.17969 29.7422V30.0703C2.17969 30.4714 2.23438 30.849 2.34375 31.2031C2.45833 31.5521 2.6224 31.8594 2.83594 32.125C3.05469 32.3906 3.31771 32.599 3.625 32.75C3.9375 32.901 4.29167 32.9766 4.6875 32.9766C5.19792 32.9766 5.63021 32.8724 5.98438 32.6641C6.33854 32.4557 6.64844 32.1771 6.91406 31.8281L7.78906 32.5234C7.60677 32.7995 7.375 33.0625 7.09375 33.3125C6.8125 33.5625 6.46615 33.7656 6.05469 33.9219C5.64844 34.0781 5.16667 34.1562 4.60938 34.1562ZM19.0312 25.5469H20.3438V33.8203C20.3438 34.5651 20.1927 35.2005 19.8906 35.7266C19.5885 36.2526 19.1667 36.651 18.625 36.9219C18.0885 37.1979 17.4688 37.3359 16.7656 37.3359C16.474 37.3359 16.1302 37.2891 15.7344 37.1953C15.3438 37.1068 14.9583 36.9531 14.5781 36.7344C14.2031 36.5208 13.888 36.2318 13.6328 35.8672L14.3906 35.0078C14.7448 35.4349 15.1146 35.7318 15.5 35.8984C15.8906 36.0651 16.276 36.1484 16.6562 36.1484C17.1146 36.1484 17.5104 36.0625 17.8438 35.8906C18.1771 35.7188 18.4349 35.4635 18.6172 35.125C18.8047 34.7917 18.8984 34.3802 18.8984 33.8906V27.4062L19.0312 25.5469ZM13.2109 29.8672V29.7031C13.2109 29.0573 13.2865 28.4714 13.4375 27.9453C13.5938 27.4141 13.8151 26.9583 14.1016 26.5781C14.3932 26.1979 14.7448 25.9062 15.1562 25.7031C15.5677 25.4948 16.0312 25.3906 16.5469 25.3906C17.0781 25.3906 17.5417 25.4844 17.9375 25.6719C18.3385 25.8542 18.6771 26.1224 18.9531 26.4766C19.2344 26.8255 19.4557 27.2474 19.6172 27.7422C19.7786 28.237 19.8906 28.7969 19.9531 29.4219V30.1406C19.8958 30.7604 19.7839 31.3177 19.6172 31.8125C19.4557 32.3073 19.2344 32.7292 18.9531 33.0781C18.6771 33.4271 18.3385 33.6953 17.9375 33.8828C17.5365 34.0651 17.0677 34.1562 16.5312 34.1562C16.026 34.1562 15.5677 34.0495 15.1562 33.8359C14.75 33.6224 14.401 33.3229 14.1094 32.9375C13.8177 32.5521 13.5938 32.099 13.4375 31.5781C13.2865 31.0521 13.2109 30.4818 13.2109 29.8672ZM14.6562 29.7031V29.8672C14.6562 30.2891 14.6979 30.6849 14.7812 31.0547C14.8698 31.4245 15.0026 31.75 15.1797 32.0312C15.362 32.3125 15.5938 32.5339 15.875 32.6953C16.1562 32.8516 16.4922 32.9297 16.8828 32.9297C17.362 32.9297 17.7578 32.8281 18.0703 32.625C18.3828 32.4219 18.6302 32.1536 18.8125 31.8203C19 31.487 19.1458 31.125 19.25 30.7344V28.8516C19.1927 28.5651 19.1042 28.2891 18.9844 28.0234C18.8698 27.7526 18.7188 27.513 18.5312 27.3047C18.349 27.0911 18.1224 26.9219 17.8516 26.7969C17.5807 26.6719 17.263 26.6094 16.8984 26.6094C16.5026 26.6094 16.1615 26.6927 15.875 26.8594C15.5938 27.0208 15.362 27.2448 15.1797 27.5312C15.0026 27.8125 14.8698 28.1406 14.7812 28.5156C14.6979 28.8854 14.6562 29.2812 14.6562 29.7031ZM27.5234 32.5547V28.2031C27.5234 27.8698 27.4557 27.5807 27.3203 27.3359C27.1901 27.0859 26.9922 26.8932 26.7266 26.7578C26.4609 26.6224 26.1328 26.5547 25.7422 26.5547C25.3776 26.5547 25.0573 26.6172 24.7812 26.7422C24.5104 26.8672 24.2969 27.0312 24.1406 27.2344C23.9896 27.4375 23.9141 27.6562 23.9141 27.8906H22.4688C22.4688 27.5885 22.5469 27.2891 22.7031 26.9922C22.8594 26.6953 23.0833 26.4271 23.375 26.1875C23.6719 25.9427 24.026 25.75 24.4375 25.6094C24.8542 25.4635 25.3177 25.3906 25.8281 25.3906C26.4427 25.3906 26.9844 25.4948 27.4531 25.7031C27.9271 25.9115 28.2969 26.2266 28.5625 26.6484C28.8333 27.0651 28.9688 27.5885 28.9688 28.2188V32.1562C28.9688 32.4375 28.9922 32.737 29.0391 33.0547C29.0911 33.3724 29.1667 33.6458 29.2656 33.875V34H27.7578C27.6849 33.8333 27.6276 33.612 27.5859 33.3359C27.5443 33.0547 27.5234 32.7943 27.5234 32.5547ZM27.7734 28.875L27.7891 29.8906H26.3281C25.9167 29.8906 25.5495 29.9245 25.2266 29.9922C24.9036 30.0547 24.6328 30.151 24.4141 30.2812C24.1953 30.4115 24.0286 30.5755 23.9141 30.7734C23.7995 30.9661 23.7422 31.1927 23.7422 31.4531C23.7422 31.7188 23.8021 31.9609 23.9219 32.1797C24.0417 32.3984 24.2214 32.5729 24.4609 32.7031C24.7057 32.8281 25.0052 32.8906 25.3594 32.8906C25.8021 32.8906 26.1927 32.7969 26.5312 32.6094C26.8698 32.4219 27.138 32.1927 27.3359 31.9219C27.5391 31.651 27.6484 31.388 27.6641 31.1328L28.2812 31.8281C28.2448 32.0469 28.1458 32.2891 27.9844 32.5547C27.8229 32.8203 27.6068 33.0755 27.3359 33.3203C27.0703 33.5599 26.7526 33.7604 26.3828 33.9219C26.0182 34.0781 25.6068 34.1562 25.1484 34.1562C24.5755 34.1562 24.0729 34.0443 23.6406 33.8203C23.2135 33.5964 22.8802 33.2969 22.6406 32.9219C22.4062 32.5417 22.2891 32.1172 22.2891 31.6484C22.2891 31.1953 22.3776 30.7969 22.5547 30.4531C22.7318 30.1042 22.987 29.8151 23.3203 29.5859C23.6536 29.3516 24.0547 29.1745 24.5234 29.0547C24.9922 28.9349 25.5156 28.875 26.0938 28.875H27.7734ZM32.6875 27.3516V34H31.2422V25.5469H32.6094L32.6875 27.3516ZM32.3438 29.4531L31.7422 29.4297C31.7474 28.8516 31.8333 28.3177 32 27.8281C32.1667 27.3333 32.401 26.9036 32.7031 26.5391C33.0052 26.1745 33.3646 25.8932 33.7812 25.6953C34.2031 25.4922 34.6693 25.3906 35.1797 25.3906C35.5964 25.3906 35.9714 25.4479 36.3047 25.5625C36.638 25.6719 36.9219 25.849 37.1562 26.0938C37.3958 26.3385 37.5781 26.6562 37.7031 27.0469C37.8281 27.4323 37.8906 27.9036 37.8906 28.4609V34H36.4375V28.4453C36.4375 28.0026 36.3724 27.6484 36.2422 27.3828C36.112 27.112 35.9219 26.9167 35.6719 26.7969C35.4219 26.6719 35.1146 26.6094 34.75 26.6094C34.3906 26.6094 34.0625 26.6849 33.7656 26.8359C33.474 26.987 33.2214 27.1953 33.0078 27.4609C32.7995 27.7266 32.6354 28.0312 32.5156 28.375C32.401 28.7135 32.3438 29.0729 32.3438 29.4531ZM41.5312 22V34H40.0859V22H41.5312ZM41.1875 29.4531L40.5859 29.4297C40.5911 28.8516 40.6771 28.3177 40.8438 27.8281C41.0104 27.3333 41.2448 26.9036 41.5469 26.5391C41.849 26.1745 42.2083 25.8932 42.625 25.6953C43.0469 25.4922 43.513 25.3906 44.0234 25.3906C44.4401 25.3906 44.8151 25.4479 45.1484 25.5625C45.4818 25.6719 45.7656 25.849 46 26.0938C46.2396 26.3385 46.4219 26.6562 46.5469 27.0469C46.6719 27.4323 46.7344 27.9036 46.7344 28.4609V34H45.2812V28.4453C45.2812 28.0026 45.2161 27.6484 45.0859 27.3828C44.9557 27.112 44.7656 26.9167 44.5156 26.7969C44.2656 26.6719 43.9583 26.6094 43.5938 26.6094C43.2344 26.6094 42.9062 26.6849 42.6094 26.8359C42.3177 26.987 42.0651 27.1953 41.8516 27.4609C41.6432 27.7266 41.4792 28.0312 41.3594 28.375C41.2448 28.7135 41.1875 29.0729 41.1875 29.4531ZM52.4062 34.1562C51.8177 34.1562 51.2839 34.0573 50.8047 33.8594C50.3307 33.6562 49.9219 33.3724 49.5781 33.0078C49.2396 32.6432 48.9792 32.2109 48.7969 31.7109C48.6146 31.2109 48.5234 30.6641 48.5234 30.0703V29.7422C48.5234 29.0547 48.625 28.4427 48.8281 27.9062C49.0312 27.3646 49.3073 26.9062 49.6562 26.5312C50.0052 26.1562 50.401 25.8724 50.8438 25.6797C51.2865 25.487 51.7448 25.3906 52.2188 25.3906C52.8229 25.3906 53.3438 25.4948 53.7812 25.7031C54.224 25.9115 54.5859 26.2031 54.8672 26.5781C55.1484 26.9479 55.3568 27.3854 55.4922 27.8906C55.6276 28.3906 55.6953 28.9375 55.6953 29.5312V30.1797H49.3828V29H54.25V28.8906C54.2292 28.5156 54.151 28.151 54.0156 27.7969C53.8854 27.4427 53.6771 27.151 53.3906 26.9219C53.1042 26.6927 52.7135 26.5781 52.2188 26.5781C51.8906 26.5781 51.5885 26.6484 51.3125 26.7891C51.0365 26.9245 50.7995 27.1276 50.6016 27.3984C50.4036 27.6693 50.25 28 50.1406 28.3906C50.0312 28.7812 49.9766 29.2318 49.9766 29.7422V30.0703C49.9766 30.4714 50.0312 30.849 50.1406 31.2031C50.2552 31.5521 50.4193 31.8594 50.6328 32.125C50.8516 32.3906 51.1146 32.599 51.4219 32.75C51.7344 32.901 52.0885 32.9766 52.4844 32.9766C52.9948 32.9766 53.4271 32.8724 53.7812 32.6641C54.1354 32.4557 54.4453 32.1771 54.7109 31.8281L55.5859 32.5234C55.4036 32.7995 55.1719 33.0625 54.8906 33.3125C54.6094 33.5625 54.263 33.7656 53.8516 33.9219C53.4453 34.0781 52.9635 34.1562 52.4062 34.1562ZM65.1953 25.5469V27.0312H60.3516V25.5469H65.1953ZM61.6484 23.4688H63.7188V31.5625C63.7188 31.8125 63.7526 32.0052 63.8203 32.1406C63.888 32.276 63.9896 32.3672 64.125 32.4141C64.2604 32.4609 64.4219 32.4844 64.6094 32.4844C64.7448 32.4844 64.8698 32.4766 64.9844 32.4609C65.099 32.4453 65.1953 32.4297 65.2734 32.4141L65.2812 33.9609C65.1094 34.0182 64.9141 34.0651 64.6953 34.1016C64.4818 34.138 64.2396 34.1562 63.9688 34.1562C63.5052 34.1562 63.099 34.0781 62.75 33.9219C62.401 33.7604 62.1302 33.5026 61.9375 33.1484C61.7448 32.7891 61.6484 32.3151 61.6484 31.7266V23.4688ZM70.3672 34.1562C69.7266 34.1562 69.151 34.0521 68.6406 33.8438C68.1302 33.6354 67.6953 33.3464 67.3359 32.9766C66.9818 32.6016 66.7083 32.1667 66.5156 31.6719C66.3281 31.1719 66.2344 30.6354 66.2344 30.0625V29.75C66.2344 29.099 66.3281 28.5078 66.5156 27.9766C66.7031 27.4401 66.9688 26.9792 67.3125 26.5938C67.6562 26.2083 68.0677 25.9115 68.5469 25.7031C69.026 25.4948 69.5547 25.3906 70.1328 25.3906C70.7318 25.3906 71.2604 25.4922 71.7188 25.6953C72.1771 25.8932 72.5599 26.1745 72.8672 26.5391C73.1745 26.9036 73.4062 27.3411 73.5625 27.8516C73.7188 28.3568 73.7969 28.9167 73.7969 29.5312V30.3984H67.1719V28.9766H71.7656V28.8203C71.7552 28.4922 71.6927 28.1927 71.5781 27.9219C71.4635 27.6458 71.2865 27.4271 71.0469 27.2656C70.8073 27.099 70.4974 27.0156 70.1172 27.0156C69.8099 27.0156 69.5417 27.0833 69.3125 27.2188C69.0885 27.349 68.901 27.5365 68.75 27.7812C68.6042 28.0208 68.4948 28.3073 68.4219 28.6406C68.349 28.974 68.3125 29.3438 68.3125 29.75V30.0625C68.3125 30.4167 68.3594 30.7448 68.4531 31.0469C68.5521 31.349 68.6953 31.612 68.8828 31.8359C69.0755 32.0547 69.3047 32.2266 69.5703 32.3516C69.8411 32.4714 70.1484 32.5312 70.4922 32.5312C70.9245 32.5312 71.3151 32.4479 71.6641 32.2812C72.0182 32.1094 72.3255 31.8568 72.5859 31.5234L73.625 32.6016C73.4479 32.862 73.2083 33.112 72.9062 33.3516C72.6094 33.5911 72.25 33.7865 71.8281 33.9375C71.4062 34.0833 70.9193 34.1562 70.3672 34.1562ZM77.2344 27.2812V34H75.1719V25.5469H77.1172L77.2344 27.2812ZM76.9297 29.4688H76.2969C76.2969 28.8802 76.3672 28.3385 76.5078 27.8438C76.6536 27.349 76.8672 26.9193 77.1484 26.5547C77.4297 26.1849 77.776 25.8984 78.1875 25.6953C78.6042 25.4922 79.0859 25.3906 79.6328 25.3906C80.013 25.3906 80.362 25.4479 80.6797 25.5625C80.9974 25.6719 81.2708 25.8464 81.5 26.0859C81.7344 26.3203 81.9141 26.6276 82.0391 27.0078C82.1641 27.3828 82.2266 27.8333 82.2266 28.3594V34H80.1641V28.5703C80.1641 28.1745 80.1068 27.8646 79.9922 27.6406C79.8828 27.4167 79.724 27.2604 79.5156 27.1719C79.3073 27.0781 79.0573 27.0312 78.7656 27.0312C78.4427 27.0312 78.1641 27.0964 77.9297 27.2266C77.7005 27.3516 77.5104 27.526 77.3594 27.75C77.2135 27.974 77.1042 28.2318 77.0312 28.5234C76.9635 28.8151 76.9297 29.1302 76.9297 29.4688ZM82.0703 29.0859L81.2188 29.2422C81.224 28.7109 81.2969 28.2135 81.4375 27.75C81.5781 27.2812 81.7839 26.8724 82.0547 26.5234C82.3307 26.1693 82.6719 25.8932 83.0781 25.6953C83.4896 25.4922 83.9635 25.3906 84.5 25.3906C84.9167 25.3906 85.2917 25.4505 85.625 25.5703C85.9635 25.6849 86.2526 25.8698 86.4922 26.125C86.7318 26.375 86.9141 26.7005 87.0391 27.1016C87.1693 27.5026 87.2344 27.9922 87.2344 28.5703V34H85.1562V28.5625C85.1562 28.151 85.099 27.8359 84.9844 27.6172C84.875 27.3984 84.7161 27.2474 84.5078 27.1641C84.2995 27.0755 84.0547 27.0312 83.7734 27.0312C83.487 27.0312 83.237 27.0859 83.0234 27.1953C82.8151 27.2995 82.638 27.4453 82.4922 27.6328C82.3516 27.8203 82.2448 28.0391 82.1719 28.2891C82.1042 28.5339 82.0703 28.7995 82.0703 29.0859ZM91.1484 27.1719V37.25H89.0781V25.5469H90.9922L91.1484 27.1719ZM96.5781 29.6875V29.8516C96.5781 30.4661 96.5052 31.0365 96.3594 31.5625C96.2188 32.0833 96.0104 32.5391 95.7344 32.9297C95.4583 33.3151 95.1146 33.6172 94.7031 33.8359C94.2969 34.0495 93.8281 34.1562 93.2969 34.1562C92.776 34.1562 92.3229 34.0573 91.9375 33.8594C91.5521 33.6562 91.2266 33.3698 90.9609 33C90.6953 32.6302 90.4818 32.2005 90.3203 31.7109C90.1641 31.2161 90.0469 30.6771 89.9688 30.0938V29.5703C90.0469 28.9505 90.1641 28.388 90.3203 27.8828C90.4818 27.3724 90.6953 26.9323 90.9609 26.5625C91.2266 26.1875 91.5495 25.8984 91.9297 25.6953C92.3151 25.4922 92.7656 25.3906 93.2812 25.3906C93.8177 25.3906 94.2891 25.4922 94.6953 25.6953C95.1068 25.8984 95.4531 26.1901 95.7344 26.5703C96.0156 26.9505 96.2266 27.4036 96.3672 27.9297C96.5078 28.4557 96.5781 29.0417 96.5781 29.6875ZM94.5078 29.8516V29.6875C94.5078 29.3125 94.474 28.9661 94.4062 28.6484C94.3385 28.3255 94.2344 28.0443 94.0938 27.8047C93.9531 27.5599 93.7708 27.3698 93.5469 27.2344C93.3229 27.099 93.0521 27.0312 92.7344 27.0312C92.4167 27.0312 92.1432 27.0833 91.9141 27.1875C91.6849 27.2917 91.4974 27.4401 91.3516 27.6328C91.2057 27.8255 91.0911 28.0547 91.0078 28.3203C90.9297 28.5807 90.8776 28.8698 90.8516 29.1875V30.4844C90.8984 30.8698 90.9896 31.2161 91.125 31.5234C91.2604 31.8307 91.4583 32.0755 91.7188 32.2578C91.9844 32.4401 92.3281 32.5312 92.75 32.5312C93.0677 32.5312 93.3385 32.4609 93.5625 32.3203C93.7865 32.1797 93.9688 31.987 94.1094 31.7422C94.25 31.4922 94.3516 31.2057 94.4141 30.8828C94.4766 30.5599 94.5078 30.2161 94.5078 29.8516ZM97.7188 29.8594V29.6953C97.7188 29.0755 97.8073 28.5052 97.9844 27.9844C98.1615 27.4583 98.4193 27.0026 98.7578 26.6172C99.0964 26.2318 99.5104 25.9323 100 25.7188C100.49 25.5 101.047 25.3906 101.672 25.3906C102.307 25.3906 102.87 25.5 103.359 25.7188C103.854 25.9323 104.271 26.2318 104.609 26.6172C104.948 27.0026 105.206 27.4583 105.383 27.9844C105.56 28.5052 105.648 29.0755 105.648 29.6953V29.8594C105.648 30.474 105.56 31.0443 105.383 31.5703C105.206 32.0911 104.948 32.5469 104.609 32.9375C104.271 33.3229 103.857 33.6224 103.367 33.8359C102.878 34.0495 102.318 34.1562 101.688 34.1562C101.062 34.1562 100.503 34.0495 100.008 33.8359C99.513 33.6224 99.0964 33.3229 98.7578 32.9375C98.4193 32.5469 98.1615 32.0911 97.9844 31.5703C97.8073 31.0443 97.7188 30.474 97.7188 29.8594ZM99.7812 29.6953V29.8594C99.7812 30.2292 99.8177 30.5755 99.8906 30.8984C99.9635 31.2214 100.076 31.5052 100.227 31.75C100.378 31.9948 100.573 32.1875 100.812 32.3281C101.057 32.4635 101.349 32.5312 101.688 32.5312C102.021 32.5312 102.307 32.4635 102.547 32.3281C102.786 32.1875 102.982 31.9948 103.133 31.75C103.289 31.5052 103.404 31.2214 103.477 30.8984C103.549 30.5755 103.586 30.2292 103.586 29.8594V29.6953C103.586 29.3307 103.549 28.9896 103.477 28.6719C103.404 28.349 103.289 28.0651 103.133 27.8203C102.982 27.5703 102.784 27.375 102.539 27.2344C102.299 27.0885 102.01 27.0156 101.672 27.0156C101.339 27.0156 101.052 27.0885 100.812 27.2344C100.573 27.375 100.378 27.5703 100.227 27.8203C100.076 28.0651 99.9635 28.349 99.8906 28.6719C99.8177 28.9896 99.7812 29.3307 99.7812 29.6953ZM109.5 22.625L109.273 30.5859H107.531L107.305 22.625H109.5ZM107.242 33.0391C107.242 32.7318 107.346 32.474 107.555 32.2656C107.768 32.0521 108.055 31.9453 108.414 31.9453C108.773 31.9453 109.057 32.0521 109.266 32.2656C109.479 32.474 109.586 32.7318 109.586 33.0391C109.586 33.3411 109.479 33.5964 109.266 33.8047C109.057 34.013 108.773 34.1172 108.414 34.1172C108.055 34.1172 107.768 34.013 107.555 33.8047C107.346 33.5964 107.242 33.3411 107.242 33.0391Z" fill="white"/>
<path d="M301.857 29.7555H304.927V9.18811H301.857V29.7555ZM329.509 16.5967L325.989 25.514H325.884L322.232 16.5967H318.925L324.402 29.0596L321.281 35.9927H324.481L332.923 16.5967H329.509ZM312.099 27.4193C311.092 27.4193 309.69 26.9175 309.69 25.672C309.69 24.086 311.435 23.4772 312.944 23.4772C314.293 23.4772 314.93 23.7684 315.749 24.1649C315.511 26.0702 313.87 27.4193 312.099 27.4193ZM312.469 16.1476C310.246 16.1476 307.943 17.1265 306.992 19.2966L309.716 20.4335C310.299 19.2966 311.383 18.9248 312.521 18.9248C314.109 18.9248 315.723 19.8774 315.749 21.572V21.7826C315.193 21.4651 314.004 20.9896 312.548 20.9896C309.611 20.9896 306.62 22.6036 306.62 25.6194C306.62 28.3719 309.029 30.1455 311.727 30.1455C313.792 30.1455 314.93 29.2192 315.644 28.1333H315.75V29.721H318.713V21.8353C318.713 18.1844 315.988 16.1476 312.469 16.1476L312.469 16.1476ZM293.496 19.1008H289.129V12.0509H293.496C295.791 12.0509 297.094 13.9512 297.094 15.575C297.094 17.1693 295.791 19.1008 293.496 19.1008ZM293.417 9.18811H286.061V29.7555H289.129V21.9636H293.417C296.819 21.9636 300.164 19.499 300.164 15.575C300.164 11.6511 296.819 9.18811 293.417 9.18811ZM253.304 27.4225C251.183 27.4225 249.408 25.6473 249.408 23.209C249.408 20.7444 251.183 18.9412 253.304 18.9412C255.398 18.9412 257.04 20.7444 257.04 23.209C257.04 25.6473 255.398 27.4225 253.304 27.4225ZM256.83 17.7484H256.723C256.033 16.9274 254.709 16.1854 253.039 16.1854C249.54 16.1854 246.333 19.2588 246.333 23.209C246.333 27.1313 249.54 30.18 253.039 30.18C254.709 30.18 256.033 29.438 256.723 28.589H256.83V29.5976C256.83 32.2744 255.398 33.7058 253.092 33.7058C251.209 33.7058 250.043 32.3534 249.566 31.2132L246.889 32.3271C247.657 34.1829 249.699 36.4616 253.092 36.4616C256.696 36.4616 259.745 34.3409 259.745 29.1731V16.6083H256.83V17.7484ZM261.866 29.7555H264.941V9.18647H261.866V29.7555ZM269.472 22.9705C269.393 20.2673 271.566 18.8886 273.129 18.8886C274.35 18.8886 275.383 19.4973 275.727 20.3726L269.472 22.9705ZM279.014 20.6375C278.432 19.0745 276.655 16.1854 273.024 16.1854C269.419 16.1854 266.425 19.0202 266.425 23.1827C266.425 27.105 269.393 30.18 273.368 30.18C276.576 30.18 278.432 28.2189 279.2 27.0787L276.815 25.4877C276.02 26.6542 274.933 27.4225 273.368 27.4225C271.805 27.4225 270.691 26.7069 269.975 25.3035L279.332 21.4321L279.014 20.6375ZM204.47 18.3325V21.3005H211.573C211.361 22.9705 210.805 24.1896 209.957 25.0369C208.922 26.0718 207.305 27.212 204.47 27.212C200.096 27.212 196.677 23.6862 196.677 19.3131C196.677 14.9383 200.096 11.4142 204.47 11.4142C206.83 11.4142 208.552 12.3421 209.824 13.5349L211.918 11.4405C210.142 9.74422 207.784 8.44446 204.47 8.44446C198.48 8.44446 193.444 13.3227 193.444 19.3131C193.444 25.3035 198.48 30.18 204.47 30.18C207.703 30.18 210.142 29.1188 212.05 27.1313C214.013 25.1702 214.622 22.4144 214.622 20.1867C214.622 19.4973 214.569 18.8623 214.462 18.3325H204.47ZM222.698 27.4225C220.578 27.4225 218.748 25.6736 218.748 23.1827C218.748 20.6638 220.578 18.9412 222.698 18.9412C224.817 18.9412 226.647 20.6638 226.647 23.1827C226.647 25.6736 224.817 27.4225 222.698 27.4225ZM222.698 16.1854C218.827 16.1854 215.673 19.1271 215.673 23.1827C215.673 27.212 218.827 30.18 222.698 30.18C226.568 30.18 229.722 27.212 229.722 23.1827C229.722 19.1271 226.568 16.1854 222.698 16.1854ZM238.021 27.4225C235.9 27.4225 234.07 25.6736 234.07 23.1827C234.07 20.6638 235.9 18.9412 238.021 18.9412C240.141 18.9412 241.969 20.6638 241.969 23.1827C241.969 25.6736 240.141 27.4225 238.021 27.4225ZM238.021 16.1854C234.151 16.1854 230.997 19.1271 230.997 23.1827C230.997 27.212 234.151 30.18 238.021 30.18C241.89 30.18 245.044 27.212 245.044 23.1827C245.044 19.1271 241.89 16.1854 238.021 16.1854Z" fill="white"/>
<path d="M149.682 1.58723C149.255 2.04159 149.001 2.74675 149.001 3.6599V36.2857C149.001 37.2003 149.255 37.904 149.682 38.3584L149.792 38.4646L168.069 20.1882V19.9728V19.756L149.792 1.47954L149.682 1.58723Z" fill="white"/>
<path d="M168.069 19.7559V19.9727V20.1881L174.161 26.2837L174.299 26.2055L181.517 22.1044C183.578 20.9316 183.578 19.0138 181.517 17.844L174.299 13.7414L174.162 13.6632L168.069 19.7559Z" fill="white"/>
<path d="M149.682 38.3583C150.362 39.0767 151.485 39.1667 152.749 38.4498L174.299 26.204L168.069 19.9727L149.682 38.3583Z" fill="#DBDBDB"/>
<path d="M149.682 1.58708L168.069 19.9727L174.299 13.7414L152.749 1.49709C152.156 1.15927 151.594 0.999943 151.096 0.999943C150.529 0.999943 150.044 1.205 149.682 1.58708Z" fill="#DBDBDB"/>
<g opacity="0.199997">
<g opacity="0.199997">
<path opacity="0.199997" d="M174.162 26.0666L152.749 38.2327C151.551 38.9143 150.48 38.8685 149.793 38.249L149.684 38.3596L149.793 38.4658V38.4643C150.48 39.0839 151.551 39.1297 152.749 38.4481L174.299 26.2038L174.162 26.0666Z" fill="white"/>
</g>
</g>
<g opacity="0.119995">
<g opacity="0.119995">
<path opacity="0.119995" d="M149.683 38.1434C149.254 37.689 149 36.9839 149 36.0707V36.2861C149 37.1992 149.254 37.9044 149.683 38.3588L149.794 38.2496L149.683 38.1434Z" fill="white"/>
</g>
</g>
<g opacity="0.119995">
<g opacity="0.119995">
<path opacity="0.119995" d="M181.517 21.887L174.162 26.0663L174.299 26.2035L181.517 22.1024C182.548 21.5167 183.063 20.7452 183.063 19.9737C182.976 20.6714 182.452 21.3559 181.517 21.887Z" fill="white"/>
</g>
</g>
<g opacity="0.25">
<g opacity="0.25">
<path opacity="0.25" d="M152.749 1.71272L181.517 18.0581C182.452 18.5892 182.977 19.2736 183.063 19.9729C183.064 19.2014 182.548 18.4284 181.517 17.8427L152.749 1.49733C150.686 0.326014 149 1.29818 149 3.65999V3.87538C149 1.51504 150.686 0.541395 152.749 1.71272Z" fill="white"/>
</g>
</g>
</svg>
