<svg width="23" height="23" viewBox="0 0 23 23" fill="none" xmlns="http://www.w3.org/2000/svg">
<path d="M15.1362 11.5174C15.1362 12.4216 14.777 13.2887 14.1377 13.928C13.4983 14.5673 12.6312 14.9265 11.7271 14.9265C10.8229 14.9265 9.95583 14.5673 9.3165 13.928C8.67718 13.2887 8.31801 12.4216 8.31801 11.5174C8.31801 11.3231 8.33846 11.1333 8.37369 10.9492H7.18165V15.4913C7.18165 15.8072 7.43733 16.0629 7.75324 16.0629H15.7021C15.8535 16.0626 15.9986 16.0022 16.1055 15.895C16.2124 15.7879 16.2725 15.6427 16.2725 15.4913V10.9492H15.0805C15.1157 11.1333 15.1362 11.3231 15.1362 11.5174ZM11.7271 13.7901C12.0256 13.7901 12.3212 13.7312 12.597 13.6169C12.8728 13.5026 13.1233 13.3351 13.3344 13.1239C13.5454 12.9128 13.7128 12.6621 13.827 12.3863C13.9411 12.1104 13.9999 11.8148 13.9998 11.5163C13.9997 11.2178 13.9408 10.9222 13.8265 10.6464C13.7122 10.3706 13.5447 10.12 13.3336 9.909C13.1224 9.69796 12.8718 9.53058 12.5959 9.4164C12.3201 9.30223 12.0245 9.2435 11.7259 9.24358C11.123 9.24373 10.5449 9.48338 10.1187 9.90981C9.69244 10.3362 9.45308 10.9145 9.45323 11.5174C9.45338 12.1203 9.69303 12.6985 10.1195 13.1247C10.5459 13.5509 11.1242 13.7903 11.7271 13.7901ZM14.4543 9.13108H15.8168C15.9074 9.13108 15.9942 9.0952 16.0583 9.0313C16.1224 8.9674 16.1586 8.88069 16.1589 8.79017V7.42768C16.1589 7.33696 16.1228 7.24996 16.0587 7.18582C15.9945 7.12167 15.9075 7.08563 15.8168 7.08563H14.4543C14.3636 7.08563 14.2766 7.12167 14.2125 7.18582C14.1483 7.24996 14.1123 7.33696 14.1123 7.42768V8.79017C14.1134 8.97767 14.2668 9.13108 14.4543 9.13108ZM11.7271 0.608398C8.83383 0.608398 6.05907 1.75774 4.01323 3.80358C1.96739 5.84942 0.818054 8.62417 0.818054 11.5174C0.818054 14.4107 1.96739 17.1854 4.01323 19.2313C6.05907 21.2771 8.83383 22.4265 11.7271 22.4265C13.1597 22.4265 14.5782 22.1443 15.9018 21.5961C17.2253 21.0478 18.4279 20.2443 19.4409 19.2313C20.4539 18.2183 21.2575 17.0157 21.8057 15.6921C22.3539 14.3686 22.6361 12.95 22.6361 11.5174C22.6361 10.0848 22.3539 8.66627 21.8057 7.34272C21.2575 6.01918 20.4539 4.81658 19.4409 3.80358C18.4279 2.79058 17.2253 1.98703 15.9018 1.4388C14.5782 0.890569 13.1597 0.608398 11.7271 0.608398ZM17.4089 15.9367C17.4089 16.631 16.8407 17.1992 16.1464 17.1992H7.30779C6.61348 17.1992 6.0453 16.631 6.0453 15.9367V7.09813C6.0453 6.40382 6.61348 5.83564 7.30779 5.83564H16.1464C16.8407 5.83564 17.4089 6.40382 17.4089 7.09813V15.9367Z" fill="white"/>
</svg>
