<svg width="148" height="18" viewBox="0 0 148 18" fill="none" xmlns="http://www.w3.org/2000/svg">
<path d="M7.711 7.518H5.456L4.895 10.554H7.15L7.711 7.518ZM12.441 5.56L12.243 6.693C12.1843 6.97167 12.067 7.18067 11.891 7.32C11.715 7.452 11.4327 7.518 11.044 7.518H9.944L9.383 10.554H10.934C11.2127 10.554 11.4107 10.6383 11.528 10.807C11.6527 10.9683 11.6857 11.2507 11.627 11.654L11.484 12.512H9.097L8.261 17H7.007C6.88233 17 6.765 16.9707 6.655 16.912C6.545 16.8533 6.45333 16.7727 6.38 16.67C6.30667 16.5673 6.25167 16.45 6.215 16.318C6.18567 16.1787 6.18933 16.032 6.226 15.878L6.864 12.512H4.62L3.971 16.01C3.91233 16.362 3.76567 16.615 3.531 16.769C3.29633 16.923 3.036 17 2.75 17H1.54L2.376 12.512H1.111C0.832333 12.512 0.634333 12.4313 0.517 12.27C0.399667 12.1013 0.370333 11.819 0.429 11.423L0.572 10.554H2.662L3.223 7.518H0.869L1.078 6.385C1.13667 6.10633 1.254 5.901 1.43 5.769C1.606 5.62967 1.88833 5.56 2.277 5.56H3.509L4.18 2.018C4.23867 1.72467 4.37433 1.49733 4.587 1.336C4.79967 1.17467 5.049 1.094 5.335 1.094H6.578L5.731 5.56H7.986L8.833 1.094H10.043C10.3217 1.094 10.5453 1.18567 10.714 1.369C10.8827 1.545 10.945 1.76867 10.901 2.04L10.23 5.56H12.441ZM31.7807 1.094V17H29.1737V6.726C29.1737 6.31533 29.1957 5.87167 29.2397 5.395L24.4327 14.426C24.2054 14.8587 23.8571 15.075 23.3877 15.075H22.9697C22.5004 15.075 22.1521 14.8587 21.9247 14.426L17.0627 5.362C17.0847 5.604 17.1031 5.84233 17.1177 6.077C17.1324 6.31167 17.1397 6.528 17.1397 6.726V17H14.5327V1.094H16.7657C16.8977 1.094 17.0114 1.09767 17.1067 1.105C17.2021 1.11233 17.2864 1.13067 17.3597 1.16C17.4404 1.18933 17.5101 1.237 17.5687 1.303C17.6347 1.369 17.6971 1.457 17.7557 1.567L22.5187 10.4C22.6434 10.6347 22.7571 10.8767 22.8597 11.126C22.9697 11.3753 23.0761 11.632 23.1787 11.896C23.2814 11.6247 23.3877 11.3643 23.4977 11.115C23.6077 10.8583 23.7251 10.6127 23.8497 10.378L28.5467 1.567C28.6054 1.457 28.6677 1.369 28.7337 1.303C28.7997 1.237 28.8694 1.18933 28.9427 1.16C29.0234 1.13067 29.1114 1.11233 29.2067 1.105C29.3021 1.09767 29.4157 1.094 29.5477 1.094H31.7807ZM38.2996 3.448V7.859H43.8656V10.136H38.2996V14.635H45.3616V17H35.3296V1.094H45.3616V3.448H38.2996ZM50.9539 17H47.9839V1.094H50.9539V17ZM57.4851 3.448V7.859H63.0511V10.136H57.4851V14.635H64.5471V17H54.5151V1.094H64.5471V3.448H57.4851ZM84.4174 1.094V17H81.8104V6.726C81.8104 6.31533 81.8324 5.87167 81.8764 5.395L77.0694 14.426C76.8421 14.8587 76.4938 15.075 76.0244 15.075H75.6064C75.1371 15.075 74.7888 14.8587 74.5614 14.426L69.6994 5.362C69.7214 5.604 69.7398 5.84233 69.7544 6.077C69.7691 6.31167 69.7764 6.528 69.7764 6.726V17H67.1694V1.094H69.4024C69.5344 1.094 69.6481 1.09767 69.7434 1.105C69.8388 1.11233 69.9231 1.13067 69.9964 1.16C70.0771 1.18933 70.1468 1.237 70.2054 1.303C70.2714 1.369 70.3338 1.457 70.3924 1.567L75.1554 10.4C75.2801 10.6347 75.3938 10.8767 75.4964 11.126C75.6064 11.3753 75.7128 11.632 75.8154 11.896C75.9181 11.6247 76.0244 11.3643 76.1344 11.115C76.2444 10.8583 76.3618 10.6127 76.4864 10.378L81.1834 1.567C81.2421 1.457 81.3044 1.369 81.3704 1.303C81.4364 1.237 81.5061 1.18933 81.5794 1.16C81.6601 1.13067 81.7481 1.11233 81.8434 1.105C81.9388 1.09767 82.0524 1.094 82.1844 1.094H84.4174ZM90.9363 3.448V8.156H96.8983V10.521H90.9363V17H87.9663V1.094H97.9983V3.448H90.9363ZM115.446 9.047C115.446 10.213 115.252 11.2947 114.863 12.292C114.482 13.282 113.939 14.14 113.235 14.866C112.531 15.592 111.684 16.1603 110.694 16.571C109.704 16.9743 108.604 17.176 107.394 17.176C106.191 17.176 105.095 16.9743 104.105 16.571C103.115 16.1603 102.264 15.592 101.553 14.866C100.849 14.14 100.303 13.282 99.9139 12.292C99.5252 11.2947 99.3309 10.213 99.3309 9.047C99.3309 7.881 99.5252 6.803 99.9139 5.813C100.303 4.81567 100.849 3.954 101.553 3.228C102.264 2.502 103.115 1.93733 104.105 1.534C105.095 1.12333 106.191 0.918 107.394 0.918C108.201 0.918 108.96 1.01333 109.671 1.204C110.382 1.38733 111.035 1.65133 111.629 1.996C112.223 2.33333 112.755 2.74767 113.224 3.239C113.701 3.723 114.104 4.26567 114.434 4.867C114.764 5.46833 115.013 6.121 115.182 6.825C115.358 7.529 115.446 8.26967 115.446 9.047ZM112.421 9.047C112.421 8.17433 112.304 7.39333 112.069 6.704C111.834 6.00733 111.501 5.417 111.068 4.933C110.635 4.449 110.107 4.07867 109.484 3.822C108.868 3.56533 108.171 3.437 107.394 3.437C106.617 3.437 105.916 3.56533 105.293 3.822C104.677 4.07867 104.149 4.449 103.709 4.933C103.276 5.417 102.943 6.00733 102.708 6.704C102.473 7.39333 102.356 8.17433 102.356 9.047C102.356 9.91967 102.473 10.7043 102.708 11.401C102.943 12.0903 103.276 12.677 103.709 13.161C104.149 13.6377 104.677 14.0043 105.293 14.261C105.916 14.5177 106.617 14.646 107.394 14.646C108.171 14.646 108.868 14.5177 109.484 14.261C110.107 14.0043 110.635 13.6377 111.068 13.161C111.501 12.677 111.834 12.0903 112.069 11.401C112.304 10.7043 112.421 9.91967 112.421 9.047ZM128.967 13.249C129.129 13.249 129.272 13.3113 129.396 13.436L130.562 14.701C129.917 15.5003 129.121 16.1127 128.175 16.538C127.237 16.9633 126.107 17.176 124.787 17.176C123.607 17.176 122.543 16.9743 121.597 16.571C120.659 16.1677 119.856 15.6067 119.188 14.888C118.521 14.1693 118.008 13.3113 117.648 12.314C117.296 11.3167 117.12 10.2277 117.12 9.047C117.12 7.85167 117.311 6.759 117.692 5.769C118.074 4.77167 118.609 3.91367 119.298 3.195C119.995 2.47633 120.824 1.919 121.784 1.523C122.745 1.11967 123.808 0.918 124.974 0.918C126.133 0.918 127.16 1.10867 128.054 1.49C128.956 1.87133 129.723 2.37 130.353 2.986L129.363 4.361C129.305 4.449 129.228 4.526 129.132 4.592C129.044 4.658 128.92 4.691 128.758 4.691C128.648 4.691 128.535 4.66167 128.417 4.603C128.3 4.537 128.172 4.46 128.032 4.372C127.893 4.27667 127.732 4.174 127.548 4.064C127.365 3.954 127.152 3.855 126.91 3.767C126.668 3.67167 126.386 3.59467 126.063 3.536C125.748 3.47 125.381 3.437 124.963 3.437C124.252 3.437 123.599 3.56533 123.005 3.822C122.419 4.07133 121.913 4.438 121.487 4.922C121.062 5.39867 120.732 5.98533 120.497 6.682C120.263 7.37133 120.145 8.15967 120.145 9.047C120.145 9.94167 120.27 10.7373 120.519 11.434C120.776 12.1307 121.121 12.7173 121.553 13.194C121.986 13.6707 122.496 14.0373 123.082 14.294C123.669 14.5433 124.3 14.668 124.974 14.668C125.378 14.668 125.741 14.646 126.063 14.602C126.393 14.558 126.694 14.4883 126.965 14.393C127.244 14.2977 127.504 14.1767 127.746 14.03C127.996 13.876 128.241 13.689 128.483 13.469C128.557 13.403 128.634 13.3517 128.714 13.315C128.795 13.271 128.879 13.249 128.967 13.249ZM147.415 9.047C147.415 10.213 147.22 11.2947 146.832 12.292C146.45 13.282 145.908 14.14 145.204 14.866C144.5 15.592 143.653 16.1603 142.663 16.571C141.673 16.9743 140.573 17.176 139.363 17.176C138.16 17.176 137.064 16.9743 136.074 16.571C135.084 16.1603 134.233 15.592 133.522 14.866C132.818 14.14 132.271 13.282 131.883 12.292C131.494 11.2947 131.3 10.213 131.3 9.047C131.3 7.881 131.494 6.803 131.883 5.813C132.271 4.81567 132.818 3.954 133.522 3.228C134.233 2.502 135.084 1.93733 136.074 1.534C137.064 1.12333 138.16 0.918 139.363 0.918C140.169 0.918 140.928 1.01333 141.64 1.204C142.351 1.38733 143.004 1.65133 143.598 1.996C144.192 2.33333 144.723 2.74767 145.193 3.239C145.669 3.723 146.073 4.26567 146.403 4.867C146.733 5.46833 146.982 6.121 147.151 6.825C147.327 7.529 147.415 8.26967 147.415 9.047ZM144.39 9.047C144.39 8.17433 144.272 7.39333 144.038 6.704C143.803 6.00733 143.469 5.417 143.037 4.933C142.604 4.449 142.076 4.07867 141.453 3.822C140.837 3.56533 140.14 3.437 139.363 3.437C138.585 3.437 137.885 3.56533 137.262 3.822C136.646 4.07867 136.118 4.449 135.678 4.933C135.245 5.417 134.911 6.00733 134.677 6.704C134.442 7.39333 134.325 8.17433 134.325 9.047C134.325 9.91967 134.442 10.7043 134.677 11.401C134.911 12.0903 135.245 12.677 135.678 13.161C136.118 13.6377 136.646 14.0043 137.262 14.261C137.885 14.5177 138.585 14.646 139.363 14.646C140.14 14.646 140.837 14.5177 141.453 14.261C142.076 14.0043 142.604 13.6377 143.037 13.161C143.469 12.677 143.803 12.0903 144.038 11.401C144.272 10.7043 144.39 9.91967 144.39 9.047Z" fill="white"/>
</svg>
