<svg width="128" height="40" viewBox="0 0 128 40" fill="none" xmlns="http://www.w3.org/2000/svg">
<path d="M17.6386 22.2512C17.6386 22.2512 17.6386 22.2839 17.6386 22.2512C17.6386 22.2839 17.6386 22.2839 17.6386 22.2512C17.835 22.4475 18.1622 22.6111 18.5549 22.5457C18.6204 22.5457 33.3467 18.3899 34.5575 18.0627C34.6229 18.03 34.6884 18.03 34.7211 17.9973C35.1138 17.7682 35.2447 17.3755 35.2447 17.081C35.2447 16.8193 35.1138 16.4593 34.7866 16.263C34.7211 16.1975 27.1616 12.7289 27.1616 12.7289C27.1616 12.7289 23.6928 5.17004 23.66 5.1046C23.4637 4.8101 23.1364 4.67921 22.8419 4.64648C22.5147 4.64648 22.1547 4.77737 21.9256 5.17004C21.8929 5.23549 21.8601 5.26821 21.8601 5.33366C21.5329 6.54439 17.3768 21.2695 17.3768 21.335C17.2786 21.7276 17.4423 22.0549 17.6386 22.2512Z" fill="#FFC600"/>
<path d="M30.4344 10.9293L30.5325 10.8311C30.5653 10.7984 30.5653 10.7984 30.598 10.7657C30.6307 10.733 30.6307 10.733 30.6634 10.7003L30.7616 10.6021C30.7943 10.5694 30.7943 10.5694 30.8271 10.5366C30.8598 10.5039 30.8598 10.5039 30.8925 10.4712L30.9907 10.373C31.0234 10.3403 31.0234 10.3403 31.0561 10.3076C31.0889 10.2749 31.0889 10.2749 31.1216 10.2421L31.2198 10.144C31.2525 10.1113 31.2525 10.1113 31.2852 10.0785C31.3179 10.0458 31.3179 10.0458 31.3507 10.0131L31.4488 9.91492C31.8415 9.52225 31.8415 8.8678 31.4488 8.47513C31.0561 8.08246 30.4016 8.08246 30.0089 8.47513L29.9108 8.5733C29.878 8.60602 29.878 8.60602 29.8453 8.63874C29.8126 8.67146 29.8126 8.67146 29.7799 8.70418L29.6817 8.80235C29.649 8.83508 29.649 8.83508 29.6162 8.8678C29.5835 8.90052 29.5835 8.90052 29.5508 8.93324L29.4526 9.03141C29.4199 9.06413 29.4199 9.06413 29.3872 9.09685C29.3544 9.12958 29.3544 9.12958 29.3217 9.1623L29.2235 9.26047C29.1908 9.29319 29.1908 9.29319 29.1581 9.32591C29.1254 9.35863 29.1254 9.35864 29.0926 9.39136L28.9945 9.48952C28.6018 9.88219 28.6018 10.5366 28.9945 10.9293C29.3872 11.322 30.0417 11.322 30.4344 10.9293ZM34.0996 4.38481L34.0014 4.48298C33.9687 4.51571 33.9687 4.5157 33.936 4.54843C33.9032 4.58115 33.9032 4.58115 33.8705 4.61387L33.7723 4.71204C33.7396 4.74476 33.7396 4.74476 33.7069 4.77748C33.6742 4.81021 33.6742 4.81021 33.6414 4.84293L33.5433 4.9411C33.5105 4.97382 33.5105 4.97382 33.4778 5.00654C33.4451 5.03926 33.4451 5.03927 33.4123 5.07199L33.3142 5.17015C33.2814 5.20288 33.2814 5.20288 33.2487 5.2356C33.216 5.26832 33.216 5.26832 33.1833 5.30105L33.0851 5.39921C32.6924 5.79188 32.6924 6.44633 33.0851 6.839C33.4778 7.23167 34.1323 7.23167 34.525 6.839L34.6232 6.74084C34.6559 6.70811 34.6559 6.70811 34.6886 6.67539C34.7214 6.64267 34.7214 6.64267 34.7541 6.60995L34.8523 6.51178C34.885 6.47905 34.885 6.47905 34.9177 6.44633C34.9504 6.41361 34.9504 6.41361 34.9832 6.38089L35.0813 6.28272C35.1141 6.25 35.1141 6.25 35.1468 6.21727C35.1795 6.18455 35.1795 6.18455 35.2122 6.15183L35.3104 6.05366C35.3431 6.02094 35.3431 6.02094 35.3759 5.98822C35.4086 5.95549 35.4086 5.9555 35.4413 5.92277L35.5395 5.8246C35.9322 5.43193 35.9322 4.77748 35.5395 4.38481C35.1468 3.99214 34.4923 3.99214 34.0996 4.38481ZM39.6301 0.294502C39.2374 -0.0981675 38.5829 -0.0981675 38.1902 0.294502L38.092 0.39267C38.0593 0.425392 38.0593 0.425393 38.0266 0.458115C37.9939 0.490838 37.9939 0.490837 37.9611 0.52356L37.863 0.621728C37.8302 0.65445 37.8302 0.65445 37.7975 0.687172C37.7648 0.719895 37.7648 0.719895 37.7321 0.752618L37.6339 0.850785C37.6012 0.883507 37.6012 0.883508 37.5684 0.91623C37.5357 0.948953 37.5357 0.948952 37.503 0.981675L37.4048 1.07984C37.3721 1.11257 37.3721 1.11257 37.3394 1.14529C37.3066 1.17801 37.3066 1.17801 37.2739 1.21073L37.1757 1.3089C36.783 1.70157 36.783 2.35602 37.1757 2.74869C37.5684 3.14136 38.2229 3.14136 38.6156 2.74869L38.7138 2.65052C38.7465 2.6178 38.7465 2.6178 38.7793 2.58508C38.812 2.55235 38.812 2.55236 38.8447 2.51963L38.9429 2.42146C38.9756 2.38874 38.9756 2.38874 39.0083 2.35602C39.0411 2.3233 39.0411 2.3233 39.0738 2.29058L39.172 2.19241C39.2047 2.15968 39.2047 2.15968 39.2374 2.12696C39.2701 2.09424 39.2701 2.09424 39.3029 2.06152L39.401 1.96335C39.4338 1.93063 39.4338 1.93063 39.4665 1.89791C39.4992 1.86518 39.4992 1.86518 39.5319 1.83246L39.6301 1.73429C40.0228 1.34162 40.0228 0.687173 39.6301 0.294502ZM35.1141 20.0916L34.7214 20.1898C33.2487 20.6152 31.907 20.9751 30.6962 21.3351C30.6962 21.5968 30.7289 21.8586 30.7289 22.1531C30.7289 29.2866 24.9365 35.1112 17.7697 35.1112C10.6357 35.1112 4.81059 29.3194 4.81059 22.1531C4.81059 14.9869 10.6029 9.19502 17.7697 9.19502C18.0315 9.19502 18.2933 9.19502 18.5551 9.22775C18.9151 7.88612 19.3405 6.41361 19.7987 4.77748C19.8314 4.67932 19.8641 4.58115 19.8969 4.5157C19.2096 4.41754 18.4897 4.38481 17.7697 4.38481C7.98493 4.38481 0 12.3691 0 22.1531C0 31.9372 7.98493 39.9214 17.7697 39.9214C27.5873 39.9214 35.5395 31.9372 35.5395 22.1531C35.5395 21.4332 35.5068 20.7133 35.4086 19.9934C35.3431 20.0589 35.245 20.0916 35.1141 20.0916Z" fill="white"/>
<path d="M15.7408 19.2407C16.0353 18.2263 16.4935 16.5247 17.2789 13.776C12.8937 14.0378 9.39214 17.7027 9.39214 22.153C9.39214 26.7668 13.1555 30.5627 17.8025 30.5627C22.2858 30.5627 25.9511 27.0613 26.1801 22.6438C23.4639 23.3964 21.7622 23.8873 20.7478 24.1818C20.0933 25.1307 19.0133 25.7524 17.8025 25.7524C15.839 25.7524 14.2355 24.149 14.2355 22.1857C14.2027 20.9422 14.8245 19.8951 15.7408 19.2407Z" fill="white"/>
<path d="M70.2881 13.0412C70.2881 14.338 70.0545 15.5288 69.5874 16.6136C69.1203 17.6983 68.4637 18.6322 67.6176 19.4152C66.7716 20.1982 65.7536 20.8059 64.5638 21.2381C63.3741 21.6704 62.0521 21.8866 60.5979 21.8866H53.3137V4.19575H60.5979C62.0521 4.19575 63.3741 4.41596 64.5638 4.8564C65.7536 5.28868 66.7716 5.89632 67.6176 6.67931C68.4637 7.45415 69.1203 8.38396 69.5874 9.46873C70.0545 10.5535 70.2881 11.7443 70.2881 13.0412ZM66.6394 13.0412C66.6394 12.0706 66.4984 11.2019 66.2163 10.4352C65.9431 9.66041 65.5421 9.00791 65.0133 8.47776C64.4933 7.93945 63.8588 7.52756 63.1097 7.24209C62.3693 6.95662 61.5321 6.81389 60.5979 6.81389H56.8831V19.2684H60.5979C61.5321 19.2684 62.3693 19.1257 63.1097 18.8402C63.8588 18.5547 64.4933 18.1469 65.0133 17.6168C65.5421 17.0785 65.9431 16.426 66.2163 15.6593C66.4984 14.8845 66.6394 14.0117 66.6394 13.0412Z" fill="white"/>
<path d="M82.9337 15.2066L80.607 9.32192C80.4924 9.06093 80.3735 8.75099 80.2501 8.39212C80.1267 8.03324 80.0033 7.64582 79.8799 7.22986C79.7653 7.64582 79.6464 8.03732 79.523 8.40435C79.3996 8.76322 79.2806 9.07724 79.166 9.34639L76.8526 15.2066H82.9337ZM89.2132 21.8866H86.4634C86.155 21.8866 85.9038 21.8172 85.7099 21.6786C85.516 21.5318 85.3706 21.3523 85.2736 21.1403L83.8459 17.5311H75.9272L74.4994 21.1403C74.4289 21.3279 74.2923 21.4991 74.0896 21.6541C73.8869 21.8091 73.6357 21.8866 73.3361 21.8866H70.5599L78.082 4.19575H81.7043L89.2132 21.8866Z" fill="white"/>
<path d="M101.371 7.41337C101.265 7.58465 101.151 7.71107 101.027 7.79263C100.913 7.86604 100.767 7.90274 100.591 7.90274C100.406 7.90274 100.203 7.84157 99.983 7.71923C99.7715 7.58873 99.5159 7.446 99.2163 7.29103C98.9166 7.13606 98.5641 6.9974 98.1587 6.87506C97.7621 6.74456 97.2906 6.67931 96.7442 6.67931C96.2506 6.67931 95.8188 6.73641 95.4486 6.85059C95.0785 6.95662 94.7656 7.10751 94.51 7.30326C94.2632 7.49901 94.0781 7.73554 93.9548 8.01285C93.8314 8.28201 93.7697 8.57971 93.7697 8.90596C93.7697 9.32192 93.8931 9.66856 94.1398 9.94587C94.3954 10.2232 94.7303 10.4597 95.1445 10.6555C95.5588 10.8512 96.0303 11.0266 96.5591 11.1815C97.0879 11.3365 97.6299 11.5037 98.1851 11.6831C98.7404 11.8544 99.2824 12.0583 99.8112 12.2949C100.34 12.5232 100.811 12.8169 101.226 13.1757C101.64 13.5264 101.97 13.9587 102.217 14.4726C102.473 14.9864 102.601 15.6104 102.601 16.3444C102.601 17.1437 102.451 17.8941 102.151 18.5955C101.86 19.2888 101.428 19.8964 100.856 20.4184C100.291 20.9323 99.5996 21.3401 98.78 21.6419C97.9604 21.9355 97.0218 22.0823 95.9642 22.0823C95.3561 22.0823 94.7568 22.0252 94.1663 21.911C93.5758 21.805 93.0073 21.65 92.4609 21.4461C91.9233 21.2422 91.4165 20.9975 90.9406 20.7121C90.4647 20.4266 90.0417 20.1085 89.6715 19.7578L90.7159 18.1796C90.804 18.0654 90.9186 17.9716 91.0596 17.8982C91.2006 17.8166 91.3504 17.7758 91.5091 17.7758C91.7294 17.7758 91.9674 17.8615 92.2229 18.0328C92.4785 18.1959 92.7826 18.3794 93.1351 18.5833C93.4877 18.7872 93.8975 18.9748 94.3646 19.1461C94.8405 19.3092 95.4089 19.3908 96.0699 19.3908C97.0835 19.3908 97.8678 19.1705 98.4231 18.7301C98.9783 18.2815 99.2559 17.6413 99.2559 16.8093C99.2559 16.3444 99.1281 15.9652 98.8726 15.6715C98.6258 15.3779 98.2953 15.1332 97.8811 14.9375C97.4668 14.7336 96.9953 14.5623 96.4665 14.4236C95.9377 14.285 95.4001 14.1341 94.8537 13.971C94.3073 13.8078 93.7697 13.6121 93.2409 13.3837C92.7121 13.1553 92.2406 12.8576 91.8264 12.4906C91.4121 12.1236 91.0772 11.6668 90.8216 11.1204C90.5749 10.5657 90.4515 9.8847 90.4515 9.07724C90.4515 8.4329 90.5881 7.80487 90.8613 7.19315C91.1433 6.58144 91.5487 6.03905 92.0775 5.56599C92.6063 5.09293 93.2585 4.71367 94.0341 4.4282C94.8096 4.14273 95.6998 4 96.7045 4C97.8326 4 98.8726 4.16312 99.8244 4.48937C100.776 4.81562 101.587 5.27237 102.257 5.85961L101.371 7.41337Z" fill="white"/>
<path d="M121.818 4.19575V21.8866H119.993C119.711 21.8866 119.473 21.8458 119.28 21.7642C119.094 21.6745 118.914 21.5277 118.738 21.3238L108.756 9.52991C108.809 10.0682 108.836 10.5657 108.836 11.0225V21.8866H105.703V4.19575H107.567C107.717 4.19575 107.844 4.2039 107.95 4.22022C108.065 4.22837 108.162 4.25284 108.241 4.29362C108.329 4.32625 108.413 4.37926 108.492 4.45267C108.571 4.51792 108.66 4.60764 108.756 4.72182L118.777 16.5646C118.751 16.2792 118.729 15.9978 118.711 15.7205C118.693 15.4432 118.685 15.1862 118.685 14.9497V4.19575H121.818Z" fill="white"/>
<path d="M58.289 27.7223V36.5677H56.7225V30.8543C56.7225 30.6259 56.7357 30.3792 56.7621 30.1141L53.8736 35.1363C53.737 35.3769 53.5277 35.4972 53.2457 35.4972H52.9945C52.7125 35.4972 52.5031 35.3769 52.3665 35.1363L49.4449 30.0958C49.4582 30.2304 49.4692 30.3629 49.478 30.4934C49.4868 30.6239 49.4912 30.7442 49.4912 30.8543V36.5677H47.9247V27.7223H49.2665C49.3458 27.7223 49.4141 27.7244 49.4714 27.7284C49.5287 27.7325 49.5793 27.7427 49.6234 27.759C49.6719 27.7753 49.7137 27.8018 49.749 27.8386C49.7887 27.8753 49.8261 27.9242 49.8614 27.9854L52.7235 32.8974C52.7984 33.0279 52.8667 33.1625 52.9284 33.3012C52.9945 33.4398 53.0584 33.5826 53.1201 33.7294C53.1818 33.5785 53.2457 33.4337 53.3118 33.2951C53.3779 33.1523 53.4484 33.0157 53.5233 32.8852L56.3457 27.9854C56.381 27.9242 56.4184 27.8753 56.4581 27.8386C56.4978 27.8018 56.5396 27.7753 56.5837 27.759C56.6322 27.7427 56.685 27.7325 56.7423 27.7284C56.7996 27.7244 56.8679 27.7223 56.9472 27.7223H58.289Z" fill="#FFC600"/>
<path d="M62.2063 29.0314V31.4844H65.5509V32.7506H62.2063V35.2525H66.4498V36.5677H60.4216V27.7223H66.4498V29.0314H62.2063Z" fill="#FFC600"/>
<path d="M69.8103 36.5677H68.0256V27.7223H69.8103V36.5677Z" fill="#FFC600"/>
<path d="M73.7349 29.0314V31.4844H77.0796V32.7506H73.7349V35.2525H77.9785V36.5677H71.9503V27.7223H77.9785V29.0314H73.7349Z" fill="#FFC600"/>
<path d="M89.9187 27.7223V36.5677H88.3521V30.8543C88.3521 30.6259 88.3653 30.3792 88.3918 30.1141L85.5032 35.1363C85.3666 35.3769 85.1573 35.4972 84.8753 35.4972H84.6241C84.3421 35.4972 84.1328 35.3769 83.9962 35.1363L81.0746 30.0958C81.0878 30.2304 81.0988 30.3629 81.1076 30.4934C81.1164 30.6239 81.1208 30.7442 81.1208 30.8543V36.5677H79.5543V27.7223H80.8961C80.9754 27.7223 81.0437 27.7244 81.101 27.7284C81.1583 27.7325 81.209 27.7427 81.253 27.759C81.3015 27.7753 81.3434 27.8018 81.3786 27.8386C81.4183 27.8753 81.4557 27.9242 81.491 27.9854L84.3531 32.8974C84.428 33.0279 84.4963 33.1625 84.558 33.3012C84.6241 33.4398 84.688 33.5826 84.7497 33.7294C84.8114 33.5785 84.8753 33.4337 84.9414 33.2951C85.0075 33.1523 85.078 33.0157 85.1529 32.8852L87.9753 27.9854C88.0106 27.9242 88.048 27.8753 88.0877 27.8386C88.1274 27.8018 88.1692 27.7753 88.2133 27.759C88.2618 27.7427 88.3146 27.7325 88.3719 27.7284C88.4292 27.7244 88.4975 27.7223 88.5768 27.7223H89.9187Z" fill="#FFC600"/>
<path d="M93.8359 29.0314V31.6495H97.4185V32.9647H93.8359V36.5677H92.0512V27.7223H98.0795V29.0314H93.8359Z" fill="#FFC600"/>
<path d="M108.564 32.145C108.564 32.7934 108.447 33.395 108.213 33.9496C107.984 34.5001 107.658 34.9773 107.235 35.381C106.812 35.7847 106.303 36.1008 105.708 36.3292C105.113 36.5535 104.452 36.6656 103.725 36.6656C103.003 36.6656 102.344 36.5535 101.749 36.3292C101.154 36.1008 100.643 35.7847 100.215 35.381C99.7924 34.9773 99.4641 34.5001 99.2305 33.9496C98.997 33.395 98.8802 32.7934 98.8802 32.145C98.8802 31.4966 98.997 30.8971 99.2305 30.3466C99.4641 29.792 99.7924 29.3128 100.215 28.9091C100.643 28.5053 101.154 28.1913 101.749 27.967C102.344 27.7386 103.003 27.6245 103.725 27.6245C104.21 27.6245 104.666 27.6775 105.094 27.7835C105.521 27.8854 105.913 28.0323 106.27 28.2239C106.627 28.4115 106.947 28.6419 107.229 28.9152C107.515 29.1843 107.757 29.4861 107.956 29.8205C108.154 30.1549 108.304 30.5179 108.405 30.9094C108.511 31.3009 108.564 31.7127 108.564 32.145ZM106.746 32.145C106.746 31.6597 106.676 31.2254 106.535 30.8421C106.394 30.4547 106.193 30.1264 105.933 29.8572C105.673 29.5881 105.356 29.3821 104.981 29.2394C104.611 29.0966 104.192 29.0253 103.725 29.0253C103.258 29.0253 102.837 29.0966 102.463 29.2394C102.093 29.3821 101.775 29.5881 101.511 29.8572C101.251 30.1264 101.05 30.4547 100.909 30.8421C100.768 31.2254 100.698 31.6597 100.698 32.145C100.698 32.6303 100.768 33.0667 100.909 33.4541C101.05 33.8374 101.251 34.1637 101.511 34.4328C101.775 34.6979 102.093 34.9018 102.463 35.0446C102.837 35.1873 103.258 35.2587 103.725 35.2587C104.192 35.2587 104.611 35.1873 104.981 35.0446C105.356 34.9018 105.673 34.6979 105.933 34.4328C106.193 34.1637 106.394 33.8374 106.535 33.4541C106.676 33.0667 106.746 32.6303 106.746 32.145Z" fill="#FFC600"/>
<path d="M116.689 34.4818C116.786 34.4818 116.872 34.5164 116.947 34.5858L117.647 35.2892C117.26 35.7338 116.781 36.0743 116.213 36.3108C115.649 36.5473 114.97 36.6656 114.177 36.6656C113.468 36.6656 112.829 36.5535 112.26 36.3292C111.696 36.1049 111.214 35.7929 110.813 35.3932C110.412 34.9936 110.103 34.5164 109.887 33.9618C109.676 33.4072 109.57 32.8016 109.57 32.145C109.57 31.4803 109.685 30.8727 109.914 30.3221C110.143 29.7675 110.465 29.2904 110.879 28.8907C111.297 28.491 111.795 28.1811 112.373 27.9609C112.95 27.7366 113.589 27.6245 114.29 27.6245C114.986 27.6245 115.603 27.7305 116.14 27.9425C116.682 28.1546 117.143 28.4319 117.522 28.7745L116.927 29.5391C116.892 29.5881 116.845 29.6309 116.788 29.6676C116.735 29.7043 116.66 29.7226 116.563 29.7226C116.497 29.7226 116.429 29.7063 116.358 29.6737C116.288 29.637 116.211 29.5942 116.127 29.5452C116.043 29.4922 115.946 29.4351 115.836 29.374C115.726 29.3128 115.598 29.2577 115.453 29.2088C115.307 29.1558 115.138 29.113 114.944 29.0803C114.754 29.0436 114.534 29.0253 114.283 29.0253C113.855 29.0253 113.463 29.0966 113.106 29.2394C112.754 29.378 112.45 29.5819 112.194 29.8511C111.939 30.1162 111.74 30.4424 111.599 30.8298C111.458 31.2132 111.388 31.6516 111.388 32.145C111.388 32.6426 111.463 33.085 111.612 33.4724C111.767 33.8599 111.974 34.1861 112.234 34.4512C112.494 34.7163 112.8 34.9202 113.153 35.0629C113.505 35.2016 113.884 35.2709 114.29 35.2709C114.532 35.2709 114.75 35.2587 114.944 35.2342C115.142 35.2097 115.323 35.171 115.486 35.118C115.653 35.0649 115.81 34.9977 115.955 34.9161C116.105 34.8305 116.253 34.7265 116.398 34.6041C116.442 34.5674 116.488 34.5389 116.537 34.5185C116.585 34.494 116.636 34.4818 116.689 34.4818Z" fill="#FFC600"/>
<path d="M127.774 32.145C127.774 32.7934 127.657 33.395 127.424 33.9496C127.194 34.5001 126.868 34.9773 126.445 35.381C126.022 35.7847 125.513 36.1008 124.918 36.3292C124.324 36.5535 123.663 36.6656 122.935 36.6656C122.213 36.6656 121.554 36.5535 120.959 36.3292C120.364 36.1008 119.853 35.7847 119.426 35.381C119.003 34.9773 118.674 34.5001 118.441 33.9496C118.207 33.395 118.09 32.7934 118.09 32.145C118.09 31.4966 118.207 30.8971 118.441 30.3466C118.674 29.792 119.003 29.3128 119.426 28.9091C119.853 28.5053 120.364 28.1913 120.959 27.967C121.554 27.7386 122.213 27.6245 122.935 27.6245C123.42 27.6245 123.876 27.6775 124.304 27.7835C124.731 27.8854 125.123 28.0323 125.48 28.2239C125.837 28.4115 126.157 28.6419 126.439 28.9152C126.725 29.1843 126.968 29.4861 127.166 29.8205C127.364 30.1549 127.514 30.5179 127.615 30.9094C127.721 31.3009 127.774 31.7127 127.774 32.145ZM125.956 32.145C125.956 31.6597 125.886 31.2254 125.745 30.8421C125.604 30.4547 125.403 30.1264 125.143 29.8572C124.883 29.5881 124.566 29.3821 124.191 29.2394C123.821 29.0966 123.403 29.0253 122.935 29.0253C122.468 29.0253 122.048 29.0966 121.673 29.2394C121.303 29.3821 120.986 29.5881 120.721 29.8572C120.461 30.1264 120.261 30.4547 120.12 30.8421C119.979 31.2254 119.908 31.6597 119.908 32.145C119.908 32.6303 119.979 33.0667 120.12 33.4541C120.261 33.8374 120.461 34.1637 120.721 34.4328C120.986 34.6979 121.303 34.9018 121.673 35.0446C122.048 35.1873 122.468 35.2587 122.935 35.2587C123.403 35.2587 123.821 35.1873 124.191 35.0446C124.566 34.9018 124.883 34.6979 125.143 34.4328C125.403 34.1637 125.604 33.8374 125.745 33.4541C125.886 33.0667 125.956 32.6303 125.956 32.145Z" fill="#FFC600"/>
</svg>
