<svg width="23" height="23" viewBox="0 0 23 23" fill="none" xmlns="http://www.w3.org/2000/svg">
<circle cx="11.5451" cy="11.5174" r="10.909" fill="white"/>
<path d="M14.9411 8.30908H8.14886C7.68804 8.30908 7.24608 8.49087 6.92023 8.81446C6.59438 9.13805 6.41132 9.57694 6.41132 10.0346V13.6424C6.41132 14.1 6.59438 14.5389 6.92023 14.8625C7.24608 15.1861 7.68804 15.3679 8.14886 15.3679H14.9411C15.4019 15.3679 15.8439 15.1861 16.1697 14.8625C16.4956 14.5389 16.6786 14.1 16.6786 13.6424V10.0346C16.6786 9.57694 16.4956 9.13805 16.1697 8.81446C15.8439 8.49087 15.4019 8.30908 14.9411 8.30908ZM13.5558 11.9075L10.4756 13.4761C10.4636 13.4823 10.4502 13.4853 10.4367 13.4849C10.4232 13.4844 10.4101 13.4806 10.3985 13.4736C10.3869 13.4667 10.3773 13.457 10.3706 13.4453C10.364 13.4337 10.3604 13.4205 10.3603 13.4071V10.2699C10.3604 10.2564 10.364 10.2433 10.3706 10.2316C10.3773 10.22 10.3869 10.2102 10.3985 10.2033C10.4101 10.1964 10.4232 10.1925 10.4367 10.1921C10.4502 10.1917 10.4636 10.1947 10.4756 10.2008L13.5558 11.7695C13.5687 11.776 13.5796 11.786 13.5872 11.7984C13.5947 11.8107 13.5988 11.8248 13.5988 11.8393C13.5988 11.8537 13.5947 11.8678 13.5872 11.8802C13.5796 11.8925 13.5687 11.9025 13.5558 11.9091V11.9075Z" fill="#2184DF"/>
</svg>
